<svg id="White" xmlns="http://www.w3.org/2000/svg" viewBox="0 0 1037.95 360"><defs><style>.cls-1{fill:#231f20;}</style></defs><title>Portal_logo_updated</title><path class="cls-1" d="M136.41,172.32l-27.86,0v94.49h14.75V237.45h9.36a32.59,32.59,0,0,0,23-55.64A33,33,0,0,0,136.41,172.32Zm-13.1,14.76h9.36a17.79,17.79,0,0,1,0,35.57h-9.36V187.08Z"/><path class="cls-1" d="M466.89,227.91a32.6,32.6,0,0,0,0-46.09,33,33,0,0,0-19.28-9.5l-27.86,0v94.49h14.75V237.45h8.09l18.82,29.31h17.8l-21.08-32.51A33,33,0,0,0,466.89,227.91Zm-32.38-40.83h9.36a17.79,17.79,0,0,1,0,35.57h-9.36V187.08Z"/><polygon class="cls-1" points="570.12 187.03 591.51 187.03 591.51 266.76 606.26 266.76 606.26 187.03 627.65 187.03 627.65 172.27 570.12 172.27 570.12 187.03"/><polygon class="cls-1" points="896.65 252.01 896.65 172.27 881.9 172.27 881.9 266.76 929.39 266.76 929.39 252.01 896.65 252.01"/><path class="cls-1" d="M254.55,170.42L227,218.06l27.5,47.64h55l27.5-47.64-27.5-47.64h-55Zm68.78,47.64-20.64,35.75H261.41l-20.64-35.75,20.64-35.75h41.28Z"/><path class="cls-1" d="M695.1,257L690,265.87H805.91l-58-100.42Zm52.83-67.73L785.32,254H710.55Z"/><polygon class="cls-1" points="423.99 131.68 428.98 131.68 428.98 98.23 437.95 98.23 437.95 93.23 415.02 93.23 415.02 98.23 423.99 98.23 423.99 131.68"/><polygon class="cls-1" points="525.4 110.8 513.56 110.8 513.56 93.23 508.57 93.23 508.57 131.68 513.56 131.68 513.56 115.79 525.4 115.79 525.4 131.68 530.4 131.68 530.4 93.23 525.4 93.23 525.4 110.8"/><polygon class="cls-1" points="621.73 126.68 606 126.68 606 114.95 621.73 114.95 621.73 109.96 606 109.96 606 98.23 621.73 98.23 621.73 93.23 601.01 93.23 601.01 131.68 621.73 131.68 621.73 126.68"/></svg>